<svg width="1200" height="500" viewBox="0 0 1200 500" xmlns="http://www.w3.org/2000/svg">
  <defs>
    <linearGradient id="llBg" x1="0%" y1="0%" x2="100%" y2="100%">
      <stop offset="0%" stop-color="#0b1530"/>
      <stop offset="60%" stop-color="#05091a"/>
      <stop offset="100%" stop-color="#020308"/>
    </linearGradient>
  </defs>
  <rect width="1200" height="500" fill="url(#llBg)"/>
  <g stroke="#3a6cf4" stroke-opacity="0.12" stroke-width="1">
    <line x1="0" y1="100" x2="1200" y2="100"/>
    <line x1="0" y1="200" x2="1200" y2="200"/>
    <line x1="0" y1="300" x2="1200" y2="300"/>
    <line x1="0" y1="400" x2="1200" y2="400"/>
    <line x1="300" y1="0" x2="300" y2="500"/>
    <line x1="600" y1="0" x2="600" y2="500"/>
    <line x1="900" y1="0" x2="900" y2="500"/>
  </g>

  <text x="600" y="110" text-anchor="middle" font-family="Arial, Helvetica, sans-serif" font-size="26" fill="#aebcdc">A company providing</text>
  <text x="600" y="160" text-anchor="middle" font-family="Arial, Helvetica, sans-serif" font-size="38" font-weight="800" fill="#5a8bff">AI-driven custom software</text>
  <text x="600" y="205" text-anchor="middle" font-family="Arial, Helvetica, sans-serif" font-size="38" font-weight="800" fill="#5a8bff">development solutions</text>

  <!-- browser mockup -->
  <g transform="translate(260,250)">
    <rect x="0" y="0" width="680" height="200" rx="12" fill="#f4f7fb"/>
    <circle cx="26" cy="26" r="6" fill="#f5a3a3"/>
    <circle cx="46" cy="26" r="6" fill="#f6d28a"/>
    <circle cx="66" cy="26" r="6" fill="#9fe3ad"/>
    <rect x="100" y="16" width="220" height="20" rx="10" fill="#e2e8f2"/>
    <rect x="560" y="14" width="80" height="24" rx="12" fill="#3a6cf4"/>

    <text x="40" y="100" font-family="Arial, Helvetica, sans-serif" font-size="22" font-weight="800" fill="#101935">We believe in Innovate,</text>
    <text x="40" y="130" font-family="Arial, Helvetica, sans-serif" font-size="22" font-weight="800">
      <tspan fill="#3a6cf4">Integrate</tspan><tspan fill="#101935"> and Elevate</tspan>
    </text>
    <rect x="40" y="155" width="120" height="30" rx="8" fill="#101935"/>
    <rect x="170" y="155" width="120" height="30" rx="8" fill="#e2e8f2"/>
  </g>
</svg>
