<svg width="1200" height="500" viewBox="0 0 1200 500" xmlns="http://www.w3.org/2000/svg">
  <defs>
    <linearGradient id="prBg" x1="0%" y1="0%" x2="100%" y2="100%">
      <stop offset="0%" stop-color="#1c1a4a"/>
      <stop offset="55%" stop-color="#0a0a22"/>
      <stop offset="100%" stop-color="#02020a"/>
    </linearGradient>
  </defs>
  <rect width="1200" height="500" fill="url(#prBg)"/>
  <g stroke="#8b6cf6" stroke-opacity="0.12" stroke-width="1">
    <line x1="0" y1="90" x2="1200" y2="90"/>
    <line x1="0" y1="180" x2="1200" y2="180"/>
    <line x1="0" y1="270" x2="1200" y2="270"/>
    <line x1="0" y1="360" x2="1200" y2="360"/>
    <line x1="0" y1="450" x2="1200" y2="450"/>
  </g>

  <text x="600" y="110" text-anchor="middle" font-family="Arial, Helvetica, sans-serif" font-size="22" fill="#aeb0d6">Final year project</text>
  <text x="600" y="180" text-anchor="middle" font-family="Arial, Helvetica, sans-serif" font-size="62" font-weight="800" fill="#7c6cf6">Projectorate</text>
  <text x="600" y="225" text-anchor="middle" font-family="Arial, Helvetica, sans-serif" font-size="22" font-weight="600" fill="#e6e6ff">Streamline Your Workflow with Premier</text>
  <text x="600" y="255" text-anchor="middle" font-family="Arial, Helvetica, sans-serif" font-size="22" font-weight="600" fill="#e6e6ff">Project Management Architecture</text>

  <!-- kanban mockup -->
  <g transform="translate(180,290)">
    <rect x="0" y="0" width="840" height="180" rx="12" fill="#13123a" stroke="#2c2a66" stroke-width="2"/>
    <g fill="#1d1c52">
      <rect x="20" y="20" width="190" height="140" rx="8"/>
      <rect x="225" y="20" width="190" height="140" rx="8"/>
      <rect x="430" y="20" width="190" height="140" rx="8"/>
      <rect x="635" y="20" width="185" height="140" rx="8"/>
    </g>
    <g fill="#33307d">
      <rect x="32" y="36" width="166" height="28" rx="6"/>
      <rect x="32" y="72" width="166" height="28" rx="6"/>
      <rect x="237" y="36" width="166" height="28" rx="6"/>
      <rect x="442" y="36" width="166" height="28" rx="6"/>
      <rect x="442" y="72" width="166" height="28" rx="6"/>
      <rect x="442" y="108" width="166" height="28" rx="6"/>
      <rect x="647" y="36" width="161" height="28" rx="6"/>
    </g>
    <g fill="#7c6cf6">
      <rect x="32" y="116" width="80" height="10" rx="5"/>
      <rect x="237" y="116" width="100" height="10" rx="5"/>
      <rect x="647" y="116" width="70" height="10" rx="5"/>
    </g>
  </g>
</svg>
